HIERARCHY
ROOT Hips
{
	OFFSET -0.001795 -0.223333 0.028219
	CHANNELS 6 Xposition Yposition Zposition Zrotation Yrotation Xrotation 
	JOINT LeftUpLeg
	{
		OFFSET 0.069520 -0.091406 -0.006815
		CHANNELS 3 Zrotation Yrotation Xrotation
		JOINT LeftLeg
		{
			OFFSET 0.034277 -0.375199 -0.004496
			CHANNELS 3 Zrotation Yrotation Xrotation
			JOINT LeftFoot
			{
				OFFSET -0.013596 -0.397961 -0.043693
				CHANNELS 3 Zrotation Yrotation Xrotation
				JOINT LeftToe
				{
					OFFSET 0.026358 -0.055791 0.119288
					CHANNELS 3 Zrotation Yrotation Xrotation
					End Site
					{
						OFFSET 0.000000 0.000000 0.000000
					}
				}
			}
		}
	}
	JOINT RightUpLeg
	{
		OFFSET -0.067670 -0.090522 -0.004320
		CHANNELS 3 Zrotation Yrotation Xrotation
		JOINT RightLeg
		{
			OFFSET -0.038290 -0.382569 -0.008850
			CHANNELS 3 Zrotation Yrotation Xrotation
			JOINT RightFoot
			{
				OFFSET 0.015774 -0.398415 -0.042312
				CHANNELS 3 Zrotation Yrotation Xrotation
				JOINT RightToe
				{
					OFFSET -0.025372 -0.048144 0.123348
					CHANNELS 3 Zrotation Yrotation Xrotation
					End Site
					{
						OFFSET 0.000000 0.000000 0.000000
					}
				}
			}
		}
	}
	JOINT Spine
	{
		OFFSET -0.002533 0.108963 -0.026696
		CHANNELS 3 Zrotation Yrotation Xrotation
		JOINT Spine1
		{
			OFFSET 0.005487 0.135180 0.001092
			CHANNELS 3 Zrotation Yrotation Xrotation
			JOINT Spine2
			{
				OFFSET 0.001457 0.052922 0.025425
				CHANNELS 3 Zrotation Yrotation Xrotation
				JOINT Neck
				{
					OFFSET -0.002778 0.213870 -0.042857
					CHANNELS 3 Zrotation Yrotation Xrotation
					JOINT Head
					{
						OFFSET 0.005152 0.064970 0.051349
						CHANNELS 3 Zrotation Yrotation Xrotation
						End Site
						{
							OFFSET 0.000000 0.000000 0.000000
						}
					}
				}
				JOINT LeftShoulder
				{
					OFFSET 0.078845 0.121749 -0.034090
					CHANNELS 3 Zrotation Yrotation Xrotation
					JOINT LeftArm
					{
						OFFSET 0.090977 0.030469 -0.008868
						CHANNELS 3 Zrotation Yrotation Xrotation
						JOINT LeftForeArm
						{
							OFFSET 0.259612 -0.012772 -0.027456
							CHANNELS 3 Zrotation Yrotation Xrotation
							JOINT LeftHand
							{
								OFFSET 0.249234 0.008986 -0.001171
								CHANNELS 3 Zrotation Yrotation Xrotation
								End Site
								{
									OFFSET 0.000000 0.000000 0.000000
								}
							}
						}
					}
				}
				JOINT RightShoulder
				{
					OFFSET -0.081759 0.118833 -0.038615
					CHANNELS 3 Zrotation Yrotation Xrotation
					JOINT RightArm
					{
						OFFSET -0.096012 0.032551 -0.009143
						CHANNELS 3 Zrotation Yrotation Xrotation
						JOINT RightForeArm
						{
							OFFSET -0.253742 -0.013329 -0.021401
							CHANNELS 3 Zrotation Yrotation Xrotation
							JOINT RightHand
							{
								OFFSET -0.255298 0.007772 -0.005559
								CHANNELS 3 Zrotation Yrotation Xrotation
								End Site
								{
									OFFSET 0.000000 0.000000 0.000000
								}
							}
						}
					}
				}
			}
		}
	}
}
MOTION
Frames: 14
Frame Time: 0.050000
0.000000 0.227708 0.000000 -6.268838 -2.653546 88.437044 11.687923 -2.679330 -14.821792 -12.144722 3.379910 17.610383 6.778481 20.538298 -21.036581 0.000000 0.000000 0.000000 -5.152879 2.395842 -13.872823 5.181364 -0.213779 17.078233 -6.555003 -10.332048 -25.746265 0.000000 0.000000 0.000000 5.017120 -2.603998 8.660445 -6.082729 1.267200 -28.630902 -0.844960 5.578857 31.050001 10.420417 -2.445702 -28.120828 0.000000 0.000000 0.000000 -8.117932 2.542598 -2.179595 -30.816634 -13.221334 -2.122373 132.861198 -64.695520 -96.558695 0.000000 0.000000 0.000000 9.427149 -4.539201 -3.207076 40.611886 10.674111 -1.836838 -150.503261 71.164601 -128.665672 0.000000 0.000000 0.000000 
-0.000476 0.231930 0.002988 -8.106116 -2.526655 90.147881 13.023666 -2.696253 -16.373246 -11.976901 3.332147 16.290560 8.544319 23.664138 -11.856631 0.000000 0.000000 0.000000 -4.540924 2.662812 -18.037055 5.046619 -0.051279 20.561789 -6.050559 -7.398089 -25.035692 0.000000 0.000000 0.000000 4.882611 -2.513929 7.642301 -6.592947 1.232618 -29.121999 0.793552 5.939986 31.379485 10.592214 -2.365538 -28.960603 0.000000 0.000000 0.000000 -14.734432 0.590729 -1.348691 -23.532033 -11.864696 -2.385135 139.505027 -59.702009 -100.308560 0.000000 0.000000 0.000000 8.946672 -4.433149 -3.140887 40.799885 8.391627 -2.362041 -154.348898 72.493511 -136.033107 0.000000 0.000000 0.000000 
-0.000600 0.241787 0.005522 -7.844734 -2.449494 89.938774 12.413633 -2.724986 -14.884310 -8.518564 2.383057 16.341760 6.778345 18.467698 -13.274687 0.000000 0.000000 0.000000 -5.962414 2.880606 -18.296279 6.185844 -0.345073 22.192597 -5.278003 -3.857158 -24.653031 0.000000 0.000000 0.000000 4.781927 -2.590975 9.106806 -5.724317 1.140191 -29.634711 0.236338 6.849711 29.853493 12.751398 -3.217323 -27.869144 0.000000 0.000000 0.000000 -13.352835 1.200466 -1.989571 -28.075827 -9.863046 -2.343542 141.107135 -61.604604 -105.604282 0.000000 0.000000 0.000000 14.535600 -2.509358 -2.527896 32.940178 4.448148 -2.521472 -154.030653 68.669811 -134.083634 0.000000 0.000000 0.000000 
-0.000725 0.247295 0.007015 -8.909810 -2.722090 92.026797 13.052381 -2.805667 -15.424956 -9.213375 2.262681 13.369986 7.040879 17.608724 -6.418925 0.000000 0.000000 0.000000 -6.283321 3.184219 -20.518660 7.507485 -0.551882 20.577758 -3.539580 -1.325164 -17.197416 0.000000 0.000000 0.000000 5.415878 -2.678940 6.333558 -7.576602 1.187378 -30.669744 1.008315 5.826202 30.964130 13.497250 -3.504778 -28.371479 0.000000 0.000000 0.000000 -16.408560 2.682096 -2.602778 -26.210966 -9.152150 -2.524570 143.149625 -59.582449 -105.493812 0.000000 0.000000 0.000000 16.892652 -3.162188 -3.934824 30.928180 4.014896 -2.421637 -153.987074 68.041646 -135.035570 0.000000 0.000000 0.000000 
-0.000899 0.258408 0.007202 -9.160705 -2.799344 91.819123 13.292990 -2.797960 -15.771095 -9.806845 2.524889 13.897348 6.525720 17.170367 -9.448790 0.000000 0.000000 0.000000 -5.877814 3.188290 -21.491772 6.650954 -0.347056 22.530300 -3.370513 -0.046779 -17.292586 0.000000 0.000000 0.000000 5.046588 -2.528305 6.595037 -7.071287 1.220260 -30.630298 1.444256 6.171480 32.373378 12.936369 -2.928023 -31.139434 0.000000 0.000000 0.000000 -13.691007 4.605783 -3.710606 -31.490906 -9.379490 -2.618915 141.648145 -61.723669 -105.313273 0.000000 0.000000 0.000000 15.029029 -4.506859 -4.435299 34.763475 5.485979 -2.597634 -153.459030 69.790111 -134.872179 0.000000 0.000000 0.000000 
-0.000693 0.264469 0.006343 -9.294616 -2.758923 92.058557 13.707117 -2.825182 -15.447580 -10.954345 2.657316 12.583239 6.770867 18.718695 -11.670120 0.000000 0.000000 0.000000 -7.499298 3.427370 -21.398403 8.723867 -0.854749 22.743857 -3.015726 -0.195165 -16.089347 0.000000 0.000000 0.000000 5.474449 -2.680846 6.338848 -6.628389 1.224602 -30.258323 1.058297 7.246075 32.358143 12.516583 -2.258169 -33.993865 0.000000 0.000000 0.000000 -10.461951 5.381298 -4.064403 -35.448362 -8.226742 -2.785384 142.274691 -65.376088 -110.414290 0.000000 0.000000 0.000000 12.043072 -6.176581 -4.635606 39.416951 5.315500 -2.973837 -157.055600 70.179121 -139.138277 0.000000 0.000000 0.000000 
-0.000383 0.266237 0.004752 -8.978044 -3.170897 91.294138 12.907007 -2.885136 -13.853689 -11.234948 2.387336 10.476800 6.162595 18.663061 -16.959597 0.000000 0.000000 0.000000 -9.251001 3.587937 -19.434048 11.334988 -1.432605 21.622595 -3.562991 -1.901343 -17.912548 0.000000 0.000000 0.000000 5.674248 -2.744311 6.351181 -6.671315 1.244530 -30.279481 1.232182 7.638012 33.051196 12.608516 -2.479924 -33.044992 0.000000 0.000000 0.000000 -9.891607 7.370019 -5.294788 -36.806174 -7.028039 -3.114866 147.797841 -69.529573 -121.909408 0.000000 0.000000 0.000000 12.388395 -7.192237 -5.228279 40.224192 4.345444 -3.315510 -162.132311 71.793246 -147.249040 0.000000 0.000000 0.000000 
-0.000054 0.259364 0.002789 -8.754978 -3.059064 90.711498 11.482225 -2.809600 -11.872636 -9.373710 1.727651 8.845715 5.740103 17.151534 -18.426240 0.000000 0.000000 0.000000 -9.952377 3.597623 -17.179194 13.358150 -1.725812 19.388493 -3.892585 -2.976771 -19.021979 0.000000 0.000000 0.000000 6.100422 -2.829452 5.689518 -6.105337 1.221390 -29.358332 1.311576 8.580078 33.057746 11.764677 -2.056222 -33.752946 0.000000 0.000000 0.000000 -10.022306 8.710368 -6.356352 -37.266473 -4.876433 -3.613600 159.426762 -74.187386 -141.716910 0.000000 0.000000 0.000000 12.398691 -8.793508 -5.901983 40.642740 2.407771 -3.859669 -169.981686 72.617029 -158.262117 0.000000 0.000000 0.000000 
0.000252 0.244382 0.000726 -9.017920 -3.220440 90.579800 9.491725 -2.630474 -8.671795 -6.943078 0.959767 5.208062 6.231643 17.470596 -15.586083 0.000000 0.000000 0.000000 -10.607726 3.686065 -14.606238 15.057393 -1.661858 15.511204 -4.615761 -5.555871 -20.320876 0.000000 0.000000 0.000000 6.464360 -2.827039 4.352091 -5.789068 1.200297 -28.864698 1.648873 9.676249 33.182527 12.286456 -2.137267 -34.143250 0.000000 0.000000 0.000000 -9.454136 9.681142 -7.025627 -37.566967 -2.205181 -4.167593 -178.538712 -76.487371 -172.015420 0.000000 0.000000 0.000000 11.978737 -10.018995 -6.270362 40.842535 -0.222506 -4.522665 -178.378959 71.959266 -169.842515 0.000000 0.000000 0.000000 
0.000266 0.230825 -0.000934 -9.018137 -3.570124 89.810436 7.584977 -2.272772 -6.346538 -4.125692 0.508906 4.452180 5.928532 15.537570 -13.654350 0.000000 0.000000 0.000000 -11.364771 3.772401 -12.061158 15.634747 -1.454499 12.240407 -5.313378 -7.440162 -22.352757 0.000000 0.000000 0.000000 6.547988 -2.768345 3.940340 -5.774358 1.224469 -28.897925 1.912174 9.546716 33.799980 11.680804 -1.909072 -35.105211 0.000000 0.000000 0.000000 -9.253767 12.242249 -8.346969 -37.481705 -0.278949 -4.605542 -149.828599 -75.564253 150.937996 0.000000 0.000000 0.000000 12.189417 -10.262484 -6.495057 40.131854 -1.537698 -4.821237 175.438698 71.640179 -179.213563 0.000000 0.000000 0.000000 
0.000243 0.219373 -0.002351 -9.530797 -4.270749 88.904391 6.370309 -1.956842 -3.454125 -2.860347 0.315386 3.064052 5.792123 14.617586 -11.758669 0.000000 0.000000 0.000000 -12.009939 3.897010 -10.508746 15.260952 -1.311790 11.105228 -5.211997 -7.286416 -20.225575 0.000000 0.000000 0.000000 5.945464 -2.407691 3.172169 -5.270143 1.169715 -28.559323 2.039028 10.260328 33.550080 12.386593 -2.194638 -34.775431 0.000000 0.000000 0.000000 -10.112607 12.713316 -8.885857 -36.267736 2.017033 -4.939566 -132.350560 -72.942070 125.970626 0.000000 0.000000 0.000000 14.718738 -10.328721 -6.867047 37.297615 -2.606128 -4.675426 172.328550 71.918184 175.894415 0.000000 0.000000 0.000000 
0.000202 0.213395 -0.003053 -9.386646 -4.997129 88.241500 4.992014 -1.577855 -2.059524 -1.914866 0.205089 3.065776 5.486742 13.217504 -9.434945 0.000000 0.000000 0.000000 -13.093965 4.134894 -9.214776 15.593965 -1.319495 9.850238 -5.113227 -7.680150 -18.008663 0.000000 0.000000 0.000000 5.662811 -2.171413 2.286160 -5.561920 1.206293 -29.152688 1.912367 9.174703 34.139334 11.990535 -2.169140 -35.340060 0.000000 0.000000 0.000000 -10.475178 14.225171 -9.483896 -35.235338 3.010115 -5.052513 -125.247835 -70.534989 115.411504 0.000000 0.000000 0.000000 16.343316 -9.819198 -7.231325 35.498142 -1.790366 -4.318711 165.768989 72.977719 166.207138 0.000000 0.000000 0.000000 
0.000355 0.212384 -0.003825 -9.772129 -5.334385 86.806303 4.636708 -1.393103 -0.607510 -2.116879 0.241455 3.750947 5.005172 12.079009 -10.791140 0.000000 0.000000 0.000000 -14.117647 4.332359 -8.258826 16.639333 -1.472803 9.622491 -5.307330 -7.564584 -20.635546 0.000000 0.000000 0.000000 5.793812 -2.155427 2.069105 -5.533204 1.188552 -29.256383 1.631387 9.295135 33.383099 11.937830 -2.252926 -34.910126 0.000000 0.000000 0.000000 -11.182995 14.897303 -9.953330 -33.362313 4.193415 -4.975523 -122.871487 -67.900228 109.411547 0.000000 0.000000 0.000000 19.268450 -9.127981 -7.392309 32.001937 -1.806203 -3.804914 159.398679 73.334587 157.101550 0.000000 0.000000 0.000000 
0.000625 0.212425 -0.004584 -9.488455 -5.374712 85.570016 4.359657 -1.236431 0.606361 -1.605184 0.179165 4.202961 4.953891 11.440805 -7.694206 0.000000 0.000000 0.000000 -15.238508 4.593776 -6.983688 17.659505 -1.599003 8.902507 -5.301634 -8.397942 -19.607648 0.000000 0.000000 0.000000 6.195760 -2.159809 0.909090 -5.969867 1.203014 -29.371659 1.732164 8.927044 33.533705 11.855361 -2.313856 -35.030897 0.000000 0.000000 0.000000 -12.552929 15.173828 -10.294104 -31.336659 4.325677 -4.764888 -116.736174 -66.606321 100.512010 0.000000 0.000000 0.000000 21.599313 -8.320989 -7.368301 29.346680 -2.134844 -3.511192 150.510112 74.152246 145.138456 0.000000 0.000000 0.000000 
